<svg xmlns="http://www.w3.org/2000/svg" viewBox="0 0 128 128">
  <path fill="#F7A80D" d="M38.089 77.466l-11.4 4.896 10.559 4.514 12.241-4.514-11.4-4.896zm-17.138 6.12l-.382 22.034 16.679 7.345V90.089l-16.297-6.503zm34.276 0l-15.073 5.739V110.9l15.073-6.121V83.586zm17.979-68.551L61.6 19.12l11.4 4.896 12.241-4.514-11.4-4.896zm-15.914 6.503v22.034l14.690 4.896V28.688l-14.69-7.151zm31.828 1.429l-15.073 6.121v21.652l15.073-5.739V22.967zm-78.641 55.1l11.019-4.514-10.559-4.896-11.4 4.896 10.94 4.514zm-10.94 6.121l15.071 6.121v-22.034l-15.071-6.121V84.188zm-16.297-1.43L50.85 77.466l-11.4 4.896-15.914-6.121 4.897-2.318V50.847l-5.662-2.702 5.662-2.318v-13.07l-8.36 3.347L4.23 22.967 19.684 16.846 4.23 10.724l15.454-6.121L4.23.483 28.594 11.247l11.019-4.514-11.019-4.896L4.23 11.247l15.454 6.121L4.23 23.49l15.454 6.121 11.019-4.514v13.07l-15.073 6.121v22.035l15.073 6.121v13.07l-11.019 4.514z"/>
</svg>
